<svg class="glow" version="1.1" viewBox="0 0 218.3 30.17" xmlns="http://www.w3.org/2000/svg" xmlns:osb="http://www.openswatchbook.org/uri/2009/osb">
 <rect width="218.3" height="30.17" rx="2.1309" ry="2.1309" fill="#2e3436" style="paint-order:stroke fill markers"/>
 <g transform="translate(69.496 1.803)">
  <path d="m29.302 7.826c-0.461 0-0.807 0.2-1.037 0.597-0.398 0.23-0.597 0.576-0.597 1.037v5.36c0 0.343 0.112 0.622 0.335 0.838 0.224 0.224 0.506 0.336 0.848 0.336h2.084c0.468 0 0.814-0.196 1.037-0.587 0.398-0.223 0.597-0.569 0.597-1.037v-1.13h-2.159v0.45h-0.136v-2.43h1.833v-0.45h0.46v-1.8a1.15 1.15 0 0 0-0.334-0.849 1.15 1.15 0 0 0-0.849-0.335h-2.083zm44.008 0v0.45h-0.45v7.718h2.188v-0.45h0.45v-0.828l0.137 0.471c0.063 0.238 0.188 0.43 0.377 0.576 0.195 0.154 0.419 0.23 0.67 0.23h1.895v-0.45h0.45v-1.34h-0.837c-0.042 0-0.063-0.02-0.063-0.063l-0.545-1.884c-0.083-0.28-0.254-0.5-0.513-0.66l0.095-0.335h0.733v-0.45h0.45v-1.351h-1.969c-0.321 0-0.6 0.136-0.837 0.408l-0.042 0.063v-2.105zm-34.89 0.01v0.45h-0.45v7.708h2.921c0.335 0 0.573-0.165 0.712-0.493 0.273-0.09 0.447-0.314 0.524-0.67l0.932-4.178c0.02-0.084 0.031-0.167 0.031-0.25 0-0.266-0.09-0.49-0.272-0.671s-0.415-0.272-0.702-0.272h-1.528v-1.623h-2.168zm-9.12 0.126h2.084c0.3 0 0.548 0.102 0.743 0.304a0.989 0.989 0 0 1 0.304 0.743v1.665h-1.895v-1.633h-0.398v5.298h0.398v-0.963h1.895v0.994a0.99 0.99 0 0 1-0.304 0.744 1.007 1.007 0 0 1-0.743 0.293h-2.084c-0.3 0-0.552-0.098-0.754-0.293a1.007 1.007 0 0 1-0.293-0.744v-5.36c0-0.3 0.098-0.548 0.293-0.744 0.202-0.202 0.454-0.304 0.754-0.304zm9.257 0h1.895v1.634h1.664a0.807 0.807 0 0 1 0.807 1.037l-0.921 4.167c-0.091 0.412-0.315 0.618-0.67 0.618h-2.775zm34.89 0h1.916v2.68l0.125-0.408c0.126-0.425 0.422-0.638 0.89-0.638h1.833v1.078h-0.921c-0.063 0-0.105 0.042-0.126 0.126l-0.252 0.87c0.286 0.153 0.468 0.362 0.545 0.627l0.543 1.885c0.028 0.105 0.087 0.157 0.178 0.157h0.712v1.078h-1.759a0.917 0.917 0 0 1-0.586-0.198 1.003 1.003 0 0 1-0.335-0.524l-0.545-1.916a1.28 1.28 0 0 1-0.042-0.126 0.18 0.18 0 0 0-0.073-0.031h-0.188v2.795h-1.916v-7.455zm-44.136 0.273c-0.217 0-0.402 0.076-0.555 0.23s-0.23 0.338-0.23 0.555v5.34c0 0.216 0.076 0.401 0.23 0.555s0.338 0.23 0.555 0.23h2.063a0.756 0.756 0 0 0 0.555-0.23 0.756 0.756 0 0 0 0.23-0.555v-0.712h-1.35v0.754c0 0.133-0.067 0.199-0.2 0.199h-0.534c-0.132 0-0.199-0.066-0.199-0.199v-5.424c0-0.14 0.067-0.21 0.2-0.21h0.533c0.133 0 0.2 0.07 0.2 0.21v1.424h1.35v-1.382a0.756 0.756 0 0 0-0.23-0.555 0.756 0.756 0 0 0-0.555-0.23h-2.064zm9.518 0v6.91h2.503c0.216 0 0.352-0.136 0.408-0.408 0.412-1.843 0.719-3.228 0.921-4.157a0.534 0.534 0 0 0 0.021-0.147 0.521 0.521 0 0 0-0.167-0.397 0.534 0.534 0 0 0-0.409-0.168h-1.926v-1.634h-1.351zm34.89 0v6.91h1.372v-2.795h0.44c0.195 0 0.328 0.118 0.397 0.355l0.545 1.906a0.754 0.754 0 0 0 0.251 0.377 0.666 0.666 0 0 0 0.419 0.157h1.476v-0.544h-0.43c-0.244 0-0.397-0.119-0.46-0.356l-0.534-1.875a0.723 0.723 0 0 0-0.24-0.356 0.613 0.613 0 0 0-0.377-0.167l0.314-1.078c0.07-0.245 0.195-0.367 0.376-0.367h0.733v-0.534h-1.611c-0.349 0-0.572 0.174-0.67 0.523l-0.325 1.131c-0.062 0.217-0.164 0.325-0.303 0.325v-3.613h-1.372zm-40.67 1.225 0.095 0.45h-0.545l1.204 5.424c0.07 0.3 0.23 0.503 0.482 0.607h-0.356v0.45h-0.45v1.31h3.088c0.377 0 0.656-0.182 0.838-0.545 0.356-0.168 0.534-0.444 0.534-0.827v-6.87h-2.169v0.451h-0.45l-0.105-0.45h-2.165zm11.508 0c-0.377 0-0.653 0.157-0.827 0.47a0.456 0.456 0 0 1-0.042 0.064 0.981 0.981 0 0 0-0.409 0.387 0.907 0.907 0 0 0-0.115 0.723l0.932 4.178c0.105 0.474 0.366 0.712 0.785 0.712h2.921v-0.45h0.45v-1.341h-1.685l-0.157-0.701h1.392v-0.45h0.45v-2.608a0.886 0.886 0 0 0-0.314-0.702 1.037 1.037 0 0 0-0.732-0.282h-2.65zm4.22 0v0.45h-0.461v1.309h0.701v3.853a0.894 0.894 0 0 0 0.922 0.922h1.947v-0.45h0.45v-1.31h-0.7v-1.633h1.78v-0.45h0.45v-1.77a0.894 0.894 0 0 0-0.922-0.921h-4.168zm5.601 0v0.45h-0.45v7.79h2.168v-0.45h0.45v-1.257h0.303c0.335 0 0.573-0.164 0.713-0.492 0.272-0.09 0.447-0.314 0.523-0.67l0.932-4.178a0.992 0.992 0 0 0 0.032-0.24c0-0.273-0.091-0.5-0.273-0.681s-0.415-0.273-0.702-0.273h-3.696zm5.163 0v0.45h-0.45v1.309h0.69v3.853a0.894 0.894 0 0 0 0.922 0.922h4.44v-0.45h0.45v-1.341h-0.702v-4.743h-2.167v0.45h-0.44c-0.16-0.3-0.426-0.45-0.796-0.45zm6.512 0v0.45h-0.45v1.309h0.69v4.775h2.179v-0.45h0.461v-2.587l0.503 2.21a0.98 0.98 0 0 0 0.366 0.596c0.196 0.154 0.422 0.23 0.68 0.23h1.906v-0.45h0.45v-1.34h-0.837c-0.042 0-0.063-0.017-0.063-0.052l-0.89-3.854a1.08 1.08 0 0 0-0.387-0.597 1.013 1.013 0 0 0-0.66-0.24zm-32.836 0.136h1.896l0.795 3.654v-3.654h1.895v6.722a0.76 0.76 0 0 1-0.23 0.576 0.752 0.752 0 0 1-0.555 0.22h-2.953v-1.047h1.76c0.041 0 0.069-0.025 0.083-0.073v-0.587h-0.88c-0.348 0-0.565-0.185-0.649-0.555zm11.34 0h2.639c0.251 0 0.467 0.08 0.649 0.24s0.272 0.364 0.272 0.608v2.471h-1.979l0.315 1.424h1.664v1.079h-2.775c-0.356 0-0.58-0.206-0.67-0.618l-0.921-4.168a0.798 0.798 0 0 1 0.052-0.554c0.14-0.322 0.391-0.482 0.754-0.482zm4.346 0h4.03c0.231 0 0.42 0.077 0.566 0.23 0.154 0.147 0.23 0.335 0.23 0.565v1.623h-1.905v-1.277c0-0.063-0.031-0.094-0.094-0.094h-0.23l0.01 3.654c0 0.049 0.024 0.073 0.073 0.073h0.618v1.048h-1.812a0.768 0.768 0 0 1-0.785-0.796v-3.906c-0.014-0.048-0.042-0.073-0.084-0.073h-0.617zm5.612 0h3.56a0.809 0.809 0 0 1 0.806 1.037l-0.921 4.167c-0.09 0.405-0.314 0.607-0.67 0.607h-0.88v1.707h-1.895zm5.162 0h1.812c0.223 0 0.408 0.077 0.554 0.23 0.154 0.147 0.23 0.335 0.23 0.565v3.843c0 0.05 0.022 0.08 0.063 0.095a0.08 0.08 0 0 0 0.032 0.01h0.492v-4.743h1.896v4.66c0.014 0.042 0.041 0.07 0.083 0.083h0.618v1.079h-4.293c-0.224 0-0.412-0.077-0.566-0.23s-0.23-0.342-0.23-0.566v-3.864c0-0.083-0.049-0.125-0.146-0.125h-0.545zm6.513 0h3.81a0.87 0.87 0 0 1 0.576 0.21 0.93 0.93 0 0 1 0.346 0.523l0.89 3.863c7e-3 0.098 0.066 0.147 0.178 0.147h0.712v1.079h-1.76a0.928 0.928 0 0 1-0.932-0.733l-0.92-4c0-0.035-0.015-0.053-0.043-0.053h-0.25v4.775h-1.917v-4.69c-0.014-0.05-0.042-0.074-0.084-0.074l-0.607-0.01v-1.037zm-32.638 0.272 1.078 4.869c0.063 0.272 0.2 0.408 0.409 0.408h1.13v0.838c0 0.238-0.118 0.356-0.355 0.356h-1.487v0.502h2.68a0.48 0.48 0 0 0 0.367-0.156 0.502 0.502 0 0 0 0.157-0.367v-6.45h-1.361v4.775h-0.147c-0.056 0-0.098-0.042-0.126-0.126l-1.005-4.649zm11.015 0a0.568 0.568 0 0 0-0.418 0.168 0.538 0.538 0 0 0-0.158 0.397c0 0.05 8e-3 0.098 0.022 0.147l0.931 4.157c0.056 0.272 0.189 0.408 0.398 0.408h2.503v-0.544h-1.518c-0.063 0-0.102-0.038-0.116-0.115l-0.408-1.843h2.042v-2.188a0.515 0.515 0 0 0-0.2-0.409 0.657 0.657 0 0 0-0.45-0.178zm4.608 0v0.503h0.335c0.097 0 0.181 0.034 0.25 0.104 0.078 0.07 0.116 0.154 0.116 0.252v3.884a0.53 0.53 0 0 0 0.147 0.377 0.51 0.51 0 0 0 0.376 0.157h1.53v-0.502h-0.335c-0.238 0-0.357-0.12-0.357-0.356v-3.917h0.503c0.237 0 0.356 0.118 0.356 0.356v1.015h1.361v-1.35a0.502 0.502 0 0 0-0.157-0.367 0.502 0.502 0 0 0-0.366-0.157h-3.76zm5.612 0v6.973h1.351v-1.696h1.152c0.216 0 0.352-0.136 0.408-0.408l0.921-4.157a0.534 0.534 0 0 0 0.021-0.147 0.521 0.521 0 0 0-0.167-0.397 0.534 0.534 0 0 0-0.409-0.168zm5.162 0v0.503h0.335c0.237 0 0.356 0.118 0.356 0.356v3.884c0 0.147 0.052 0.273 0.157 0.377s0.23 0.157 0.377 0.157h4.01v-0.544h-0.334a0.379 0.379 0 0 1-0.262-0.105 0.343 0.343 0 0 1-0.105-0.251v-4.377h-1.36v4.732h-0.755a0.379 0.379 0 0 1-0.262-0.105 0.343 0.343 0 0 1-0.104-0.252v-3.853a0.502 0.502 0 0 0-0.158-0.366 0.48 0.48 0 0 0-0.366-0.157h-1.529zm6.503 0v0.503h0.334c0.098 0 0.182 0.034 0.252 0.104 0.077 0.07 0.115 0.154 0.115 0.252v4.418h1.372v-4.774h0.534c0.16 0 0.268 0.118 0.324 0.356l0.89 3.884a0.623 0.623 0 0 0 0.241 0.377 0.71 0.71 0 0 0 0.43 0.157h1.487v-0.544h-0.431a0.47 0.47 0 0 1-0.293-0.105 0.427 0.427 0 0 1-0.168-0.251l-0.879-3.854a0.628 0.628 0 0 0-0.252-0.366 0.666 0.666 0 0 0-0.418-0.157h-3.54zm-26.157 0.534h0.859c0.14 0 0.192 0.07 0.157 0.21l-0.848 3.874c-0.014 0.077-0.053 0.115-0.115 0.115h-0.168v-4.074c0-0.083 0.039-0.125 0.115-0.125zm5.236 0h0.963v1.707h-0.806l-0.325-1.498c-0.034-0.14 0.021-0.209 0.168-0.209zm10.722 0h0.858c0.14 0 0.193 0.07 0.158 0.21l-0.849 3.874c-0.013 0.077-0.052 0.115-0.114 0.115h-0.168v-4.074c0-0.083 0.038-0.125 0.115-0.125zm-15.8 0.272v2.607l0.565-2.607zm5.203 0 0.252 1.162h0.314v-1.162zm10.754 0v2.607l0.565-2.607zm5.227 6.493c-0.248 0-0.469 0.065-0.662 0.194a0.76 0.76 0 0 0-0.35 0.57l-0.108 1.207v0.06c0 0.226 0.093 0.403 0.28 0.533 0.165 0.114 0.364 0.171 0.598 0.171h0.113a0.796 0.796 0 0 0 0.56-0.225 0.805 0.805 0 0 0 0.275-0.54h-0.361a0.434 0.434 0 0 1-0.146 0.287 0.425 0.425 0 0 1-0.296 0.118 0.336 0.336 0 0 1-0.22-0.081 0.249 0.249 0 0 1-0.092-0.205l0.124-1.416a0.422 0.422 0 0 1 0.08-0.21c0.047-0.068 0.105-0.102 0.173-0.102h0.764l0.032-0.361zm1.982 0c-0.248 0-0.467 0.065-0.657 0.194a0.744 0.744 0 0 0-0.356 0.57l-0.107 1.207a0.605 0.605 0 0 0 0.253 0.57c0.172 0.13 0.382 0.194 0.63 0.194h0.107c0.263 0 0.492-0.073 0.69-0.22 0.197-0.15 0.305-0.332 0.323-0.544l0.107-1.206a0.612 0.612 0 0 0-0.253-0.57 1.012 1.012 0 0 0-0.624-0.195zm1.211 0-0.032 0.36h0.188l-0.204 2.375h0.716l0.21-2.374h0.29a0.23 0.23 0 0 1 0.206 0.107 0.337 0.337 0 0 1 0.059 0.227l-0.178 2.04h0.722l0.21-2.374h0.29a0.23 0.23 0 0 1 0.205 0.107 0.337 0.337 0 0 1 0.06 0.227l-0.13 1.491c-0.014 0.18 0.04 0.32 0.162 0.42a0.683 0.683 0 0 0 0.43 0.13h0.334l0.033-0.361c-0.104 0-0.167-0.01-0.189-0.027-0.04-0.029-0.054-0.097-0.043-0.205l0.118-1.362c0.022-0.266-0.06-0.465-0.247-0.598-0.165-0.122-0.399-0.183-0.7-0.183zm3.904 0-0.026 0.36h0.204l-0.312 3.555h0.721l0.102-1.2c0.061 0.013 0.137 0.02 0.227 0.02h0.113c0.244 0 0.463-0.064 0.657-0.193a0.745 0.745 0 0 0 0.355-0.571l0.108-1.206a0.605 0.605 0 0 0-0.253-0.571 1.02 1.02 0 0 0-0.63-0.194zm3.36 0a1.16 1.16 0 0 0-0.656 0.194c-0.216 0.147-0.334 0.338-0.356 0.57l-0.102 1.207a0.605 0.605 0 0 0 0.253 0.57c0.172 0.13 0.38 0.194 0.625 0.194h0.113a0.787 0.787 0 0 0 0.554-0.22c0.115 0.147 0.298 0.22 0.55 0.22h0.253l0.032-0.36c-0.15-8e-3 -0.219-0.088-0.204-0.243l0.182-2.132h-1.243zm1.59 0-0.033 0.36h0.204l-0.21 2.375h0.722l0.21-2.374h0.29c0.087 0 0.157 0.038 0.211 0.113a0.333 0.333 0 0 1 0.054 0.22l-0.13 1.492c-0.014 0.18 0.04 0.32 0.162 0.42a0.67 0.67 0 0 0 0.431 0.13h0.307l0.032-0.361c-0.09 0-0.145-0.01-0.167-0.032-0.032-0.03-0.045-0.096-0.037-0.2l0.112-1.362c0.022-0.266-0.06-0.467-0.247-0.604-0.165-0.118-0.397-0.177-0.695-0.177h-1.217zm2.39 0-0.032 0.36h0.194l-0.135 1.546c-0.021 0.266 0.065 0.474 0.259 0.625 0.175 0.136 0.403 0.204 0.683 0.204h0.237l-0.043 0.501c-0.018 0.212-0.116 0.318-0.296 0.318h-0.684l-0.032 0.36h0.727c0.262 0 0.492-0.075 0.689-0.225 0.201-0.151 0.31-0.332 0.329-0.544l0.275-3.145h-0.722l-0.21 2.375h-0.237c-0.194 0-0.282-0.112-0.264-0.334l0.177-2.041zm-6.44 0.36h0.29c0.18 0 0.26 0.105 0.243 0.313l-0.113 1.298a0.522 0.522 0 0 1-0.108 0.302 0.275 0.275 0 0 1-0.21 0.102c-0.075 0-0.138-0.036-0.188-0.108a0.44 0.44 0 0 1-0.06-0.296l0.146-1.61zm2.434 0h0.517l-0.14 1.61a0.434 0.434 0 0 1-0.146 0.287 0.425 0.425 0 0 1-0.296 0.118c-0.226 0-0.328-0.12-0.307-0.361l0.119-1.384c0.014-0.18 0.098-0.27 0.253-0.27zm-8.428 6e-3c0.079 0 0.142 0.034 0.188 0.102 0.05 0.069 0.07 0.168 0.06 0.297l-0.103 1.206a0.508 0.508 0 0 1-0.112 0.307c-0.062 0.068-0.13 0.1-0.205 0.097a0.238 0.238 0 0 1-0.189-0.113 0.43 0.43 0 0 1-0.059-0.291l0.102-1.206a0.52 0.52 0 0 1 0.113-0.302 0.276 0.276 0 0 1 0.205-0.097z" fill="#c0f800"/>
  <path d="m13.152 0.12891c-3.834 0.036-7.6082 1.871-9.9922 4.877-1.6215 2.0131-2.6126 4.4592-2.8496 7.0332-0.054 1.263-0.075922 2.5442 0.20508 3.7852 0.526 2.599 1.8432 5.0405 3.7832 6.8555 2.246 2.185 5.3125 3.4985 8.4395 3.6445 1.427 0.045 2.8663-0.08705 4.2383-0.49805 3.412-0.961 6.3739-3.3784 8.0059-6.5234 1.75-3.305 1.9758-7.3736 0.59375-10.85-0.74099-1.8832-1.9055-3.5699-3.4043-4.9297-1.765-1.621-3.9996-2.7179-6.3496-3.1719-0.88041-0.16271-1.7747-0.2364-2.6699-0.22266zm0.16602 0.43555c3.552-0.04 7.0802 1.5219 9.4492 4.1719 1.8801 2.09 3.0202 4.7407 3.2441 7.543 0.011 0.137 0.02153 0.27411 0.01953 0.41211-0.35855-0.34918-0.78906-0.61474-1.2617-0.7793-0.463-0.081-0.9363-0.07017-1.4043-0.07617 0.345-0.445 0.72908-0.9372 0.70508-1.5332-0.015-0.31 0.0079-0.64659-0.12109-0.93359-0.081-0.035-0.16886 0.079234-0.25586-0.00977-0.175-0.106-0.06814 0.16952-0.11914 0.22852-0.092-0.07-0.23428-0.045063-0.23828 0.085937-0.03533 0.17725-0.01033 0.36073 0.07227 0.52148 0.04 0.118-0.0091 0.22355-0.07813 0.31055-0.014 0.075-0.01895 0.17734-0.12695 0.15234-0.295-0.078-0.0318 0.37119-0.2168 0.36719-0.27-0.102-0.23038 0.17061-0.23438 0.34961 0.01 0.198 0.0098 0.38517-0.24023 0.32617-7e-3 -0.585-0.03981-1.2051-0.38281-1.7051-0.316-0.51-0.80486-0.92647-1.3809-1.1055-0.148 0-0.01389 0.18442 0.03711 0.23242 0.053 0.091 0.18414 0.15022 0.24414 0.19922-0.051-0.01-0.19547 0.015078-0.10547 0.080078 0.124 0.08 0.35161 0.14831 0.34961 0.32031-0.059 0.022-0.2757-0.069078-0.2207 0.044922 0.042 0.119-5e-3 0.30194 0.16602 0.33594 0.21 0.046 0.03409 0.35834 0.24609 0.40234 0.11 0.026 0.25344 0.20002 0.14844 0.29102-0.09-0.028-0.20538 0.06658-0.10938 0.14258 0.04 0.034 0.16386 0.13148 0.13086 0.14648-0.47-0.398-0.99505-0.78119-1.623-0.86719-0.339-0.045-0.7033-0.05917-1.0293 0.04883-0.042 0.107 0.1627 0.08552 0.2207 0.10352 0.115 0.013 0.26147 0.0123 0.35547 0.0293-0.137 0.045-0.33648 0.08303-0.39648 0.20703 0.163 0.033 0.35477-0.0238 0.50977 0.0332-8e-3 0.22 0.26606 0.19066 0.41406 0.22266 0.135 0.036 0.29988-0.01003 0.42187 0.04297 0.033 0.085-0.0355 0.13545-0.0625 0.18945 0.168 0.059-0.05466 0.39139 0.15234 0.40039 0.09958-0.0061 0.19483 0.04696 0.24219 0.13476 0.11 0.035 0.25081 0.05036 0.25781 0.19336 0.089 0.064 0.27586-0.0012 0.25586 0.17383-3e-3 0.099 0.10378 0.12081 0.17578 0.13281-0.41-0.048-0.81442-0.17014-1.2324-0.11914-0.461 0.018-0.93005 0.17348-1.248 0.52148-0.122 0.142-0.31853 0.24502-0.39453 0.41602 0.04 0.076 0.20159-0.02272 0.18359 0.11328-0.019 0.228 0.15581 0.05881 0.25781 0.0078 2e-3 0.05 0.01019 0.19148 0.11719 0.14648 0.403-0.089 0.74034-0.38869 1.1523-0.42969 0.16-6e-3 -0.03303 0.08152-0.08203 0.10352-0.067 0.095 0.11816 0.06916 0.16016 0.03516 0.246-0.147 0.55711-0.10911 0.78711-0.28711 0.089-0.063 0.16597 0.0847 0.04297 0.0957-0.47 0.131-0.90894 0.38244-1.2109 0.77344-0.28538 0.3491-0.50652 0.7452-0.65234 1.1719 0.053 0.12 0.14456-0.11362 0.22656-0.01563 0.134 0.02 0.20869-0.14694 0.30469-0.21094-0.013 0.086-0.01119 0.30447 0.13281 0.23047 0.338-0.193 0.38094-0.63998 0.71094-0.83398 0.061-0.047 0.15545-0.01031 0.06445 0.05469-0.42 0.475-0.88508 0.92347-1.2051 1.4805-0.41787 0.70365-0.72555 1.4668-0.91211 2.2637-0.29-1.134-0.62647-2.2581-1.1055-3.3281-0.391-0.925-0.89644-1.7991-1.3984-2.6641-0.147-0.322-0.16747-0.68709-0.35547-0.99609-0.137-0.313-0.40545-0.54384-0.56445-0.83984-0.05081-0.16893-0.13953-0.32404-0.25977-0.45312 0.165-5e-3 0.22402 0.1672 0.29102 0.2832 0.065 0.076 0.19872 0.1452 0.26172 0.033203 0.187 0.114 0.304 0.33569 0.5 0.42969 0.086-0.018-0.0068-0.23781 0.11719-0.13281 0.133 0.127 0.3307 0.15781 0.4707 0.25781-5e-3 0.209 0.04161 0.43055 0.22461 0.56055 0.102 0.072 0.22247 0.21836 0.35547 0.19336 0.077-0.158-0.10614-0.27553-0.24414-0.26953-0.024-0.068-0.01788-0.25128 0.07813-0.11328 0.148 0.097 0.24892 0.29475 0.41992 0.34375 0.063-0.024-0.0081-0.20847 0.08789-0.10547 0.176 0.144 0.31984 0.32619 0.46484 0.49219 0.092-0.045 0.03025-0.20988 0.03125-0.29688-0.19-0.432-0.49911-0.80478-0.78711-1.1758-0.266-0.347-0.61545-0.60953-0.93945-0.89453-0.11064-0.10815-0.18165-0.25082-0.20117-0.4043 0.073 0.031 0.165 0.21772 0.25 0.13672-0.011-0.116 0.11106-0.1093 0.16406-0.029297 0.174 0.21 0.11309-0.14291 0.12109-0.25391 6e-3 -0.069-0.01492-0.24633 0.08008-0.11133 0.058 0.032 0.15875 0.21928 0.21875 0.11328-8e-3 -0.084 0.02064-0.07786 0.05664-0.00586 0.104 0.199 0.20122 0.43637 0.44922 0.48438 0.092 0.022 0.29803 0.14809 0.33203-0.00391-0.024-0.128-0.13803-0.21931-0.20703-0.32031 0.154 0.072 0.28327 0.22672 0.44727 0.26172 0.049-0.08 0.01383-0.27256 0.17383-0.22656 0.093 2e-3 0.20934 0.14459 0.27734 0.058594-0.201-0.268-0.48395-0.48059-0.75195-0.68359-0.56375-0.38714-1.2283-0.59871-1.9121-0.60938 0.052-0.164-0.08653-0.50511 0.10547-0.53711 0.324 0.028-0.10983-0.23544-0.04883-0.27344 0.17-0.046 0.47525 0.10967 0.53125-0.11133 0.021-0.118 0.15716-0.15434 0.16016-0.27734 0.045-0.098 0.15138-0.13092 0.23438-0.16992-7e-3 -0.078-0.0918-0.16489 0.0332-0.21289 0.205-0.111 0.47897-0.031969 0.66797-0.16797 1e-3 -0.14-0.21436-0.15527-0.31836-0.19727-0.278-0.067-0.53111 0.1378-0.78711 0.2168-0.563 0.217-1.1291 0.55152-1.4141 1.1035-0.082 0.104-0.23531 0.11656-0.32031 0.22656-0.044 0.032-0.18417 0.14794-0.20117 0.085937 0.11-0.13 0.2453-0.40386 0.0293-0.50586-0.124-0.04-0.04045-0.33927-0.18945-0.19727-0.044 0.035-0.21581 0.20483-0.13281 0.048828 0.083-0.135 0.26933-0.12481 0.36133-0.25781 0.08-0.038 0.126-0.17492 0-0.16992-0.091 0.023-0.14424-0.031094-0.11524-0.12109-0.017-0.108 0.07453-0.12225 0.14453-0.15625 0.037-0.155 0.07619-0.3147 0.11719-0.4707 0.028-0.128-0.17564-0.060578-0.18164-0.14258 0.04-0.037 0.17288-0.17783 0.04687-0.17383-0.602 0.315-0.83159 1.0272-0.93359 1.6562-0.048 0.35-0.04545 0.70559-0.06445 1.0586-0.44-0.417-0.98712-0.74472-1.5781-0.88672-0.564-0.093-1.1238 0.072969-1.6758 0.16797-0.126 0.049-0.32858 0.057109-0.39258 0.16211 0.148 0.066 0.49106-0.0815 0.41406 0.1875-0.061 0.245 0.23184 0.0725 0.33984 0.1875 0.124 0.1 0.21134 0.28266 0.40234 0.22266 0.164 0.018 0.35486-0.035703 0.50586 0.029297 0.032 0.234 0.30719 0.24819 0.49219 0.24219 0.142-0.016 0.09277 0.14641 0.0098 0.19141-0.353 0.136-0.76447 0.050188-1.1055 0.24219-0.699 0.341-1.3706 0.87891-1.6426 1.6289 0.068 0.077 0.15675-0.095906 0.21875-0.12891 0.076-0.07 0.15633-0.17075 0.23633-0.21875 1e-3 0.165 0.06436 0.27198 0.19336 0.083984 0.145-0.123 0.35658-0.26106 0.51758-0.28906-0.137 0.106-0.19813 0.24736 0.04688 0.19336 0.143-0.01 0.37697 0.053469 0.41797-0.14453 0.04-0.07 0.15166-0.15686 0.22266-0.13086 0.046 0.195 0.28577 0.070187 0.38477-0.00781 0.102-0.054 0.19388-0.18598 0.29688-0.20898-0.029 0.1 0.07539 0.1858 0.15039 0.091797 0.037-0.045 0.16134-0.15158 0.15234-0.017578-0.027 0.235-0.307 0.31781-0.5 0.38281-0.285 0.151-0.40617 0.48809-0.57617 0.74609-0.24 0.471-0.48022 0.9883-0.44922 1.5293 0.054 0.172 0.14623 0.33638 0.24023 0.48438 0.071-0.157 0.01416-0.38817 0.03516-0.57617 0.02-0.114-0.02045-0.29005 0.06055-0.37305 0.113 0.057 0.16625 0.20828 0.28125 0.23828 0.11-0.075 0.35664-0.4882 0.30664-0.1582-0.064 0.18 0.38452 0.17544 0.35352 0.02344 0.028-0.155-0.04899-0.35624 0.04101-0.49024 0.124-0.03 0.17619-0.15833 0.24219-0.23633 0.163-0.137 0.23725-0.36155 0.28125-0.56055 0.07-0.046 0.20744-0.02597 0.14844 0.08203-0.076 0.253-0.26026 0.47491-0.19726 0.75391 0.027 0.652-0.01692 1.3139 0.08008 1.9609 0.13 0.24-0.053 0.22908-0.25 0.20508l-0.96289-0.02149c-0.073 0.232-0.04055 0.51558-0.06055 0.76758-0.015 0.789-0.0098 1.5762-0.0098 2.3652 0.196 0.052 1.078-0.06169 1.291-0.05469 0.061 0.016 0.26417-0.05855 0.20117 0.06445-0.023 0.139-0.11053 0.26814-0.26953 0.24414-0.27336 0.02931-0.54807 0.03366-0.82227 0.01367-0.056-0.015-0.0515-0.06742-0.0625-0.10742-0.245-0.057-0.50686 0.04092-0.75586 0.04492-0.20421 0.01145-0.4088 0.06014-0.61133 0.03711l-0.03711-0.32031c-0.0067-0.15762-0.02185-0.31508-0.01172-0.47266 0.26-0.02 0.60219-0.13236 0.61719-0.44336 0.02-0.256 0.11495-0.54406 2e-3 -0.78906-0.112-0.196-0.31873-0.33964-0.55273-0.30664-0.73474-0.02399-1.47-0.03524-2.2051-0.03125-0.24 0.115-0.45348 0.35367-0.39648 0.63867 0.023 0.337-0.02125 0.80838 0.34375 0.98438 0.10127 0.03606 0.16659 0.09527 0.19141 0.18359l0.091797 0.80664c-0.122 0.021-0.29095 0.09034-0.25195-0.09766-0.043-0.19-0.30541-0.18634-0.44141-0.27734-0.218-0.02-0.23975-0.16661-0.21875-0.34961 0.017-0.212-0.25962-0.1678-0.39062-0.2168-0.302-0.049-0.61402-0.12038-0.91602-0.10938-0.128 0.167-0.22338 0.44788-0.48438 0.42188-0.263 0.044-0.53988 0.04294-0.79688 0.08594-0.086 0.247-0.016016 0.52911-0.041016 0.78711-0.21 5e-3 -0.44577-0.01164-0.63477 0.06836 0.047 0.147-0.11505 0.50347 0.12695 0.48047 0.286 0.01 0.57142 0.01111 0.85742 0.03711 0.032 1.226 0.0805 2.4546 0.0625 3.6816-5e-3 0.153-0.22241 0.14561-0.31641 0.22461-0.243 0.087-0.47233 0.27053-0.73633 0.26953-0.246-0.167-0.40352-0.4412-0.60352-0.6582-2.016-2.503-3.0475-5.7833-2.7695-8.9883 0.137-1.671 0.59867-3.3188 1.3887-4.7988 0.778-1.554 1.9238-2.9086 3.2578-4.0156 1.7856-1.4366 3.9221-2.3712 6.1895-2.7051 0.57874-0.078215 1.1621-0.11744 1.7461-0.11914zm0.8457 9.0977c6e-3 -3e-3 0.01167-1.406e-4 0.01367 0.00586-0.036 0.314 0.28244 0.51322 0.27344 0.82422-0.037 0.202 0.04167 0.32176 0.26367 0.25976 0.033 0.238-0.06072 0.52819 0.11328 0.74219 0.147 0.278 0.26964 0.57775 0.43164 0.84375 0.093-0.144 0.04195-0.38688 0.12695-0.54688 0.21-0.015 0.17345 0.23605 0.18945 0.37305 0.016 0.164 0.0012 0.33614 0.03516 0.49414 0.088-6e-3 0.16433-0.17273 0.23633-0.17773 0.035 0.163-0.0082 0.3481 0.05078 0.49609 0.216 0.081 0.29805-0.042 0.24805-0.25-0.0012-0.13685 0.0075-0.27279 0.02734-0.4082 0.9278 2.0401 1.5647 4.2006 1.8906 6.418 0.048 0.207-0.23142 0.04359-0.35742 0.05859-0.756-0.056-1.5233-0.0757-2.2773 0.0293-0.138-0.014-0.41222 0.14481-0.44922 0.0078-0.03207-0.50733-0.04514-1.0151-0.03906-1.5234 0.297-0.1 0.62334-0.15048 0.90234-0.27148-0.02-0.21 0.04166-0.45553-0.02734-0.64453-0.903 0.066-1.1663 0.09519-2.0703 0.11719-0.09-0.05-0.09291-0.17958-0.12891-0.26758 0.488-0.055 0.34612-0.02703 0.82812-0.08203 0.04-0.067 0.02639-0.17581 0.15039-0.13281 0.224-0.016 0.47369 0.04628 0.67969-0.01172-0.017-0.649 0.03579-1.3042-0.0332-1.9492-0.127-0.095-0.32747-0.07019-0.48047-0.11719-0.278 0.034-0.28086-0.16477-0.25586-0.38477 0.053-0.242-0.02897-0.39827-0.29297-0.32226h-1.4121c0.012-0.065-0.04392-0.2913 0.08008-0.1543 0.074 0.035 0.21525 0.19894 0.28125 0.08594-0.038-0.131-0.11056-0.2593-0.10156-0.4043-0.03-0.133-0.15328-0.2155-0.23828-0.3125 0.128-7e-3 0.27133-0.0083 0.36133 0.09375 0.102-0.042-0.02606-0.177-0.03906-0.25-0.04675-0.12932-0.07198-0.2668-0.07422-0.4043 0.11 0.055 0.18192 0.22961 0.29492 0.22461 0.062-0.244-0.21194-0.402-0.21094-0.625 0.088-3e-3 0.23589 0.187 0.21289 0-0.118-0.292 0.27353-0.07053 0.26953-0.26953 0.024-0.284-0.04817-0.59128 0.04883-0.86328 0.072-0.024 0.19608 0.12933 0.20508-0.01367 0.03-0.222-0.0091-0.48891 0.21094-0.62891 0.014-6e-3 0.0435-0.047641 0.0625-0.056641zm10.053 2.9102c0.098 0.015 0.26295-0.0052 0.25195 0.13476 0.151 0.11 0.37278 0.06933 0.55078 0.11133 0.109-8e-3 -0.06327-0.13516 0.05273-0.16016 0.156 0.025 0.31656 0.24072 0.47656 0.13672 0.069-0.063 4.7e-5 -0.27305 0.12305-0.12305 0.11 0.09 0.22538 0.17656 0.35938 0.22656 0.06512 2.5138-0.61581 4.9908-1.9551 7.1191-0.752 0.018-1.5118 0.0089-2.2598 0.04492 0.122 0.15 0.35634 0.24038 0.52734 0.35938 0.373 0.253 0.83567 0.23034 1.2637 0.27734-0.101 0.136-0.16991 0.36769-0.37891 0.30469-0.33377 0.02508-0.66794-0.05797-0.95117-0.23633-0.943-0.531-1.8107-1.2125-2.8477-1.5605-0.267-0.02-0.286-0.20664-0.25-0.43164 0.084-1.727 0.76772-3.4585 2.0117-4.6875 0.226-0.218 0.45384-0.44014 0.71484-0.61914 6e-3 0.134 6e-3 0.46473 0.12305 0.17773 0.066-0.082 0.1405-0.40145 0.1875-0.18945 0.051 0.163 0.33258 0.12808 0.26758 0.33008 0.049 0.15-0.1072 0.48972 0.0918 0.51172 0.072-0.025 0.25391 0.0087 0.12891 0.0957-0.099 0.047-0.26692 0.15177-0.04492 0.13477 0.192 7e-3 0.05442 0.34809 0.10742 0.49609-5e-3 0.19 0.204-0.07978 0.25-0.05078-0.096 0.091-0.22509 0.25892 0.0039 0.16992 0.085 8e-3 -0.0056 0.17952-0.01758 0.22852-0.039 0.14-0.18078 0.26425-0.17578 0.40625 0.08 0.062 0.27761-0.09425 0.22461 0.09375-0.019 0.137 0.12455 0.08325 0.18555 0.03125-0.07 0.17-0.23992 0.32911-0.16992 0.53711 0.093 0.09 0.17677-0.23626 0.25977-0.32226 0.334-0.502 0.40597-1.1608 0.16797-1.7168-0.15-0.415-0.48988-0.77103-0.54688-1.207 0.15-8e-3 0.06733 0.24989 0.23633 0.21289 0.075-0.012 0.14634-0.0078 0.15234 0.07617 0.052 0.094 0.18791 0.08681 0.25391 0.13281 0.068 0.077 0.18492 0.19502 0.29492 0.16602 0.013-0.071 0.05776-0.1215 0.13476-0.0625 0.118 0.035 0.13255 0.15024 0.18555 0.24024 0.054 0.089 0.16914 0.08909 0.24414 0.12109-0.014 0.15 0.04069 0.29705 0.17969 0.37305 0.092 0.064 0.108 0.17934 0.125 0.27734 0.09 0.015 0.24014-0.27252 0.24414-0.10352 0.06 0.163 0.18183 0.30383 0.29883 0.42383 0.045-0.185-0.0033-0.42495-0.03125-0.62695-0.144-0.7-0.72388-1.2061-1.2969-1.5781-0.083-0.06-0.22777-0.11894-0.25976-0.21094 0.153 7e-3 0.30312 0.12189 0.45312 0.08789 0.053-0.066-0.17044-0.13639-0.02344-0.15039 0.02489-0.0029 0.05116-0.0036 0.07617-2e-3zm-5.6562 0.52148c-0.02616 2e-3 -0.76798 0.0057-0.79297 0.01367-0.097 8e-3 -0.20488-0.01523-0.29688 0.0098 0.061 0.13 0.09681 0.3542 0.25781 0.4082 0.1 0.03 1.2107 0.04969 1.1797-0.07031-0.12924-8e-3 -0.33789-0.25565-0.34766-0.36133zm-3.3691 0.01563c-0.153 0.067-0.41419 0.13942-0.36719 0.35742 0.077 0.123 0.27558 0.0305 0.39258 0.0625 0.35098-0.0029 0.90147 0.05642 1.043-0.03516 0.067-0.143-0.17572-0.15325-0.26172-0.15625-0.151 0-0.2793-0.08181-0.4043-0.13281zm6.5703 0.16602c-0.126 0.072-0.26448 0.1967-0.39648 0.2207 0.044-0.144 0.26848-0.2387 0.39648-0.2207zm0.22852 0.98633c-0.02757 0.0025-0.05579 0.0088-0.08203 0.01758-0.146 6e-3 -0.29745-0.01319-0.43945 0.0078-0.145 0.163-0.31455 0.31319-0.43555 0.49219 0.318 0.046 0.67481 0.01058 1.0078 0.01758 0.067-6e-3 0.29256 0.01953 0.22656-0.10547-0.034-0.062-0.14886-0.01337-0.13086-0.10938 0.014-0.157 0.01952-0.33431-0.14648-0.32031zm-5.8574 0.01563c-0.16 2e-3 -0.32442 8e-3 -0.48242 2e-3l-0.02344 0.02344-2e-3 0.0039c0.048 0.15-0.11805 0.51914 0.12695 0.49414 0.326-0.012 0.65942 0.0237 0.98242-0.0293 0.018-0.155-0.09595-0.31961-0.12695-0.47461-0.15729-0.01834-0.31633-0.02455-0.47461-0.01953zm2.459 0c-0.188 2e-3 -0.3765 9e-3 -0.5625 2e-3l-0.02148 0.0098c0.056 0.156 0.10794 0.34447 0.21094 0.48047 0.237 0.065 0.49328 0.01325 0.73828 0.03125 0.08-0.145 0.17036-0.32809 0.19336-0.49609-0.18508-0.02276-0.37218-0.03212-0.55859-0.02734zm-1.7734 1.1289c-0.129-7e-3 -0.2903 0.03772-0.4043 0.01172-0.257 0.017-0.55106-0.03661-0.78906 0.02539 0.018 0.195-0.03761 0.4197 0.02539 0.5957h1.4668c0.034-0.168-0.08209-0.36602-0.12109-0.54102-0.036-0.066-0.10174-0.0878-0.17774-0.0918zm5.5586 0.0078-0.9082 0.01172c-0.31 0.012-0.62964-0.01351-0.93164 0.02149-0.095 0.194-0.22083 0.37717-0.29883 0.57617 0.622 0.033 1.2645 0.0088 1.8945 0.0098 0.133-0.024 0.31383 0.03527 0.42383-0.05273-0.011-0.08-0.05853-0.19345-0.14453-0.18945-0.03-0.123 0.02684-0.27095-0.03516-0.37695zm-3.791 0.0039c-0.075 5e-3 -0.15561 0.02814-0.09961 0.11914 0.074 0.156 0.06594 0.38319 0.21094 0.49219 0.21 0.076 0.29233-0.17045 0.36133-0.31445 0.06-0.084 0.12984-0.26834-0.03516-0.27734-0.12187-0.0172-0.24418-0.02342-0.36719-0.01953-0.02332-0.0013-0.04699-0.0013-0.07031 0zm-8.6953 0.40234 0.058594 0.93164c-0.43268 0.0366-0.86777 0.05807-1.3008 0.08984l-0.15234-0.91014c0.46432-0.0444 0.92907-0.08091 1.3945-0.11133zm12.666 0.75586c-0.12-5e-3 -0.28286 0.04267-0.38086 0.01367l-0.8418 0.0059c-0.454 0.015-0.92514-0.01961-1.3691 0.02539-0.056 0.21-0.16655 0.42072-0.18555 0.63672 0.22 0.08 0.47889 0.02583 0.71289 0.04883 1.16-3e-3 2.3205 0.02656 3.4805-0.02344 0.153-0.017 2e-3 -0.21088 0-0.29688-0.076-0.145-0.0493-0.43567-0.2793-0.38867-0.13-0.025-0.28408-0.0093-0.33008 0.13672-0.1479 0.18058-0.42126 0.18864-0.58008 0.01758-0.057-0.012-0.10508 6e-3 -0.08008-0.08398-0.018-0.067-0.07448-0.0898-0.14648-0.0918zm-5.4219 2e-3c-0.108 1e-3 -0.23722 0.03077-0.32422 0.0098-0.197 0.016-0.42642-0.03156-0.60742 0.02344-0.01 0.23-0.08258 0.48522-0.01758 0.69922h1.2461c0.04-0.175-0.07766-0.38622-0.09766-0.57422-4e-3 -0.133-0.09022-0.1602-0.19922-0.1582zm-2.873 0.73047h0.12891c0.25-0.04 0.07891 0.34391 0.12891 0.50391v1.2246c-0.076 0.012-0.24894 0.16609-0.21094-0.0039-5e-3 -0.574-0.02687-1.1487-0.04687-1.7227zm-0.45117 0.02734 0.02148 0.55469c0.018 0.477 0.01991 0.95269 0.0039 1.4297-0.72875 0.31996-1.513 0.49672-2.3086 0.51953l0.01758-1.5117c0.133-0.068 0.38892-0.07295 0.41992-0.25195-0.112-0.185-0.37927-0.20205-0.57227-0.24805-0.33554-0.04628-0.67304-0.03488-1.0098-0.03516l-0.033194-0.293c1.1665-0.07169 2.4386-0.11353 3.4609-0.16405zm-3.8125 0.16797 0.00586 0.10156v0.03711c0.07 0.204-0.1592 0.15088-0.2832 0.17188-0.29682 0.01816-0.60439 0.02971-0.90039 0.04102l-0.048828-0.2832c0.40793-0.02158 0.81807-0.04428 1.2266-0.06836zm-1.6216 0.06585c0.032476 0.19171 0.02551 0.2677 0.02675 0.30565-0.32972-2.8e-5 -0.32601 0.22123-0.28601 0.34923 0.176 0.111 0.083422 0.35244 0.10742 0.52344-2e-3 0.436-0.00772 0.87064-0.011719 1.3066-0.6 0.146-1.1979 0.3647-1.7559 0.5957-0.036-0.974 0.00348-1.9508 0.021484-2.9258 0.034-0.09 0.21859-0.02955 0.30859-0.06055 0.62531-0.01783 1.0389-0.05581 1.5893-0.09433zm-2.4643 0.08844c0.194-0.013 0.16048 0.19767 0.14648 0.38867-0.026 0.945-0.017781 1.891-0.050781 2.834-0.083 0.109-0.24828 0.14956-0.36328 0.22656-0.051-0.094-0.016203-0.30831-0.033203-0.44531-0.023-0.995-0.030875-1.9904-0.046875-2.9844h0.25c0.031784-0.01043 0.064326-0.01667 0.097656-0.01953zm7.4238 0.05859c-0.108 5e-3 -0.23974 0.03377-0.30274 0.0098-0.27 8e-3 -0.55055-0.01031-0.81055 0.05469 0.128 0.2 0.11897 0.50316-0.08203 0.66016-0.265 0.127-0.03152 0.16667 0.14648 0.13867h1.1895c0.064-0.22 0.0083-0.48952 0.02734-0.72852 0.027-0.122-0.05997-0.13876-0.16797-0.13476zm10.592 0.0039c-0.052 2e-3 -0.10534 0.0059-0.15234 0.0039h-4.1035l-0.02539 0.02148c-0.055 0.266-0.09086 0.53669-0.13086 0.80469 0.18 0.073 0.42491 0.0093 0.62891 0.0293h4.1016c0.047-0.193-0.04378-0.42867-0.05078-0.63867 0.042-0.219-0.10958-0.2277-0.26758-0.2207zm-8.6113 0.0039-0.02734 0.02734c0.017 0.24-0.03461 0.51242 0.02539 0.73242 0.77973-0.10536 1.5707-0.11784 2.3535-0.03906-0.03-0.232-0.06167-0.49394-0.13867-0.71094-0.36895-0.0078-0.73644-0.01093-1.1055-0.0098-0.369 0-0.73842 2e-3 -1.1074 0zm-6.623 0.66406h0.00391c0.18 0.013 0.35616 0.04436 0.53516 0.06836v1.4375c-0.197 0.016-0.41156 0.07045-0.60156 0.06445-0.033-0.51 0.036547-1.0261 0.060547-1.5371zm2.4414 0.03711 2e-3 0.0332v0.0059c0.027 0.456 0.03188 0.91214 0.04687 1.3691-0.125-0.024-0.31416 0.04094-0.41016-0.03906-0.01-0.425-0.05377-0.8583-0.0098-1.2793 0.129-6e-3 0.24709-0.06584 0.37109-0.08984zm-1.4668 0.07617c0.233 3e-3 0.46527 0.0086 0.69727 0.01563 0.034 0.438 0.05708 0.87645 0.08008 1.3145-0.297 0-0.59562-2e-3 -0.89062 0.04102 0.052-0.456 0.045281-0.91809 0.11328-1.3711zm3.7656 0.35156c-0.01814-3.4e-5 -0.03585 0.0032-0.05274 0.0098h-1.4785l-0.02149 0.02344-0.0039 0.0039c0.02 0.185-0.0407 0.40631 0.0293 0.57031 0.523-0.042 1.0592-0.13709 1.5332-0.37109 0.075-0.058 0.09914-0.23333-0.0059-0.23633zm10.734 0c-0.116-0.01-0.286 0.04077-0.375 0.0098h-2.2773c-0.607 4e-3 -1.2143-0.0023-1.8203 0.01367-0.026 0.107 0.20816 0.11473 0.28516 0.17774 0.49 0.215 0.9602 0.46976 1.4082 0.75976l2.7871 0.0039c0.118-0.253 0.06642-0.57352 0.10742-0.85352 2e-3 -0.08-0.04623-0.10633-0.11523-0.11133z" fill="#c0f800"/>
  <path d="m7.5273 5.5332c-0.072 0.136-0.030391 0.35684-0.15039 0.46484-0.09 0.05-0.31008-2.344e-4 -0.33008 0.13477 0.109 0.086 0.34253 0.00288 0.39453 0.17188 0.045 0.086 0.012047 0.27555 0.12305 0.31055 0.11-0.121 0.011141-0.43088 0.24414-0.42188 0.077-0.026 0.37328-0.052859 0.23828-0.13086-0.178-0.062-0.45673-0.025062-0.42773-0.28906-0.036-0.066-0.00684-0.22723-0.089844-0.24023zm-2.291 1.0625c-0.0085-2.989e-4 -0.016131 0.00306-0.021484 0.00977-0.1 0.294-0.10075 0.62811-0.21875 0.91211-0.274 0.131-0.61195 0.10495-0.87695 0.25195 0.04 0.099 0.22059 0.061469 0.30859 0.10547 0.19 0.041 0.38531 0.068 0.57031 0.125 0.097 0.284 0.12061 0.59795 0.22461 0.87695 0.109-0.032 0.083906-0.22245 0.12891-0.31445 0.046-0.187 0.073625-0.38545 0.14062-0.56445 0.285-0.1 0.61-0.10023 0.875-0.24023-0.04-0.098-0.21669-0.060469-0.30469-0.10547-0.187-0.054-0.42098-0.050531-0.58398-0.14453-0.092-0.294-0.13475-0.60144-0.21875-0.89844-0.00377-0.00812-0.012684-0.012532-0.021484-0.013672zm2.5742 2.7578c-0.125 0.24-0.11836 0.53683-0.19336 0.79883-0.017 0.205-0.3257 0.12126-0.4707 0.19726-0.147 0.043-0.31531 0.04791-0.44531 0.12891 0.028 0.103 0.21873 0.06242 0.30273 0.10742 0.193 0.05 0.41689 0.0543 0.58789 0.1543 0.107 0.311 0.13742 0.64798 0.23242 0.95898 0.104-0.131 0.089484-0.37483 0.14648-0.54883 0.073-0.173-0.010094-0.49942 0.25391-0.48242 0.268-0.066 0.54859-0.10645 0.80859-0.18945-0.127-0.1-0.35544-0.08863-0.52344-0.14062-0.145-0.038-0.32127-0.041328-0.44727-0.11133-0.093-0.286-0.11261-0.59509-0.22461-0.87109-0.00826-0.00559-0.018092-0.00567-0.027344-0.00195zm-4.5957 2-0.017578 0.01758c-0.048 0.276-0.072719 0.56594-0.13672 0.83594-0.234 0.075-0.51533 0.01137-0.73633 0.10938 0.054 0.097 0.23012 0.05866 0.32812 0.09766 0.147 0.059 0.45787-0.04159 0.42188 0.19141 0.03 0.204 0.027078 0.41919 0.080078 0.61719 0.1-0.013 0.049891-0.18681 0.087891-0.25781 0.048-0.151 0.00491-0.36652 0.12891-0.47852 0.256-0.052 0.52234-0.03494 0.77734-0.08594 6e-3 -0.105-0.20053-0.0508-0.26953-0.0918-0.175-0.047-0.42478-0.01638-0.55078-0.10938-0.046-0.278-0.041844-0.56975-0.089844-0.84375z" fill="#fff"/>
 </g>
</svg>